<svg width="28" height="28" viewBox="0 0 28 28" fill="none" xmlns="http://www.w3.org/2000/svg">
<path d="M14 0C6.26875 0 0 6.26875 0 14C0 21.7313 6.26875 28 14 28C21.7313 28 28 21.7313 28 14C28 6.26875 21.7313 0 14 0ZM14 25.625C7.58125 25.625 2.375 20.4188 2.375 14C2.375 7.58125 7.58125 2.375 14 2.375C20.4188 2.375 25.625 7.58125 25.625 14C25.625 20.4188 20.4188 25.625 14 25.625Z" fill="#1C64F2"/>
<path d="M19.4312 9C19.4312 8.8625 19.3187 8.75 19.1812 8.75L17.1187 8.75937L14.0125 12.4625L10.9094 8.7625L8.84375 8.75313C8.70625 8.75313 8.59375 8.8625 8.59375 9.00313C8.59375 9.0625 8.61562 9.11875 8.65312 9.16562L12.7188 14.0094L8.65312 18.85C8.61536 18.8958 8.59441 18.9531 8.59375 19.0125C8.59375 19.15 8.70625 19.2625 8.84375 19.2625L10.9094 19.2531L14.0125 15.55L17.1156 19.25L19.1781 19.2594C19.3156 19.2594 19.4281 19.15 19.4281 19.0094C19.4281 18.95 19.4062 18.8937 19.3687 18.8469L15.3094 14.0063L19.375 9.1625C19.4125 9.11875 19.4312 9.05938 19.4312 9Z" fill="#1C64F2"/>
</svg>
