<svg width="24" height="24" viewBox="0 0 24 24" fill="none" xmlns="http://www.w3.org/2000/svg">
<path d="M10.7884 12.3281C10.7884 12.6514 10.9161 12.9614 11.1433 13.1899C11.3705 13.4185 11.6788 13.5469 12.0001 13.5469C12.3215 13.5469 12.6297 13.4185 12.8569 13.1899C13.0842 12.9614 13.2118 12.6514 13.2118 12.3281C13.2118 12.1681 13.1805 12.0096 13.1196 11.8617C13.0587 11.7139 12.9695 11.5795 12.8569 11.4663C12.7444 11.3532 12.6108 11.2634 12.4638 11.2021C12.3168 11.1409 12.1592 11.1094 12.0001 11.1094C11.841 11.1094 11.6834 11.1409 11.5364 11.2021C11.3894 11.2634 11.2558 11.3532 11.1433 11.4663C11.0308 11.5795 10.9415 11.7139 10.8806 11.8617C10.8197 12.0096 10.7884 12.1681 10.7884 12.3281Z" fill="#111928" fill-opacity="0.7"/>
<path d="M18 8.25C18 8.35312 17.9156 8.4375 17.8125 8.4375H16.5C16.3969 8.4375 16.3125 8.35312 16.3125 8.25V6.9375H12.8438V8.25C12.8438 8.35312 12.7594 8.4375 12.6562 8.4375H11.3438C11.2406 8.4375 11.1562 8.35312 11.1562 8.25V6.9375H7.6875V8.25C7.6875 8.35312 7.60313 8.4375 7.5 8.4375H6.1875C6.08438 8.4375 6 8.35312 6 8.25V6.9375H3.1875V18.5625H20.8125V6.9375H18V8.25ZM15.4922 17.25H14.4656C14.3672 17.25 14.2875 17.1727 14.2805 17.0742C14.1914 15.8906 13.2023 14.9531 12.0023 14.9531C10.8023 14.9531 9.81328 15.8883 9.72422 17.0742C9.71719 17.1727 9.6375 17.25 9.53906 17.25H8.51016C8.48472 17.25 8.45955 17.2449 8.43617 17.2349C8.41279 17.2249 8.39169 17.2102 8.37415 17.1918C8.35661 17.1734 8.343 17.1516 8.33415 17.1278C8.32529 17.1039 8.32138 17.0785 8.32266 17.0531C8.38828 15.8039 9.07031 14.7188 10.0711 14.0977C9.64688 13.6289 9.38906 13.0102 9.38906 12.3281C9.38906 10.8773 10.5586 9.70312 12 9.70312C13.4414 9.70312 14.6109 10.8773 14.6109 12.3281C14.6109 13.0102 14.3531 13.6312 13.9289 14.0977C14.9297 14.7164 15.6141 15.8039 15.6797 17.0531C15.681 17.0785 15.6771 17.1039 15.6682 17.1278C15.6593 17.1516 15.6457 17.1734 15.6282 17.1918C15.6107 17.2102 15.5896 17.2249 15.5662 17.2349C15.5428 17.2449 15.5176 17.25 15.4922 17.25Z" fill="#111928" fill-opacity="0.7"/>
<path d="M13.929 14.0977C14.3693 13.6137 14.6126 12.9824 14.611 12.3281C14.611 10.8773 13.4415 9.70312 12.0001 9.70312C10.5587 9.70312 9.38916 10.8773 9.38916 12.3281C9.38916 13.0102 9.64697 13.6289 10.0712 14.0977C9.5629 14.4126 9.13839 14.846 8.83392 15.3606C8.52946 15.8753 8.35407 16.456 8.32275 17.0531C8.32148 17.0785 8.32539 17.1039 8.33424 17.1278C8.3431 17.1516 8.3567 17.1734 8.37424 17.1918C8.39178 17.2102 8.41289 17.2249 8.43627 17.2349C8.45965 17.2449 8.48482 17.25 8.51025 17.25H9.53916C9.6376 17.25 9.71728 17.1727 9.72431 17.0742C9.81338 15.8883 10.8024 14.9531 12.0024 14.9531C13.2024 14.9531 14.1915 15.8906 14.2806 17.0742C14.2876 17.1727 14.3673 17.25 14.4657 17.25H15.4923C15.5177 17.25 15.5429 17.2449 15.5663 17.2349C15.5896 17.2249 15.6107 17.2102 15.6283 17.1918C15.6458 17.1734 15.6594 17.1516 15.6683 17.1278C15.6771 17.1039 15.681 17.0785 15.6798 17.0531C15.6141 15.8039 14.9298 14.7164 13.929 14.0977ZM12.0001 13.5469C11.3321 13.5469 10.7884 13.0008 10.7884 12.3281C10.7884 11.6555 11.3321 11.1094 12.0001 11.1094C12.6681 11.1094 13.2118 11.6555 13.2118 12.3281C13.2118 13.0008 12.6681 13.5469 12.0001 13.5469Z" fill="#3F83F8"/>
<path d="M21.75 5.25H18V3.9375C18 3.83437 17.9156 3.75 17.8125 3.75H16.5C16.3969 3.75 16.3125 3.83437 16.3125 3.9375V5.25H12.8438V3.9375C12.8438 3.83437 12.7594 3.75 12.6562 3.75H11.3438C11.2406 3.75 11.1562 3.83437 11.1562 3.9375V5.25H7.6875V3.9375C7.6875 3.83437 7.60313 3.75 7.5 3.75H6.1875C6.08438 3.75 6 3.83437 6 3.9375V5.25H2.25C1.83516 5.25 1.5 5.58516 1.5 6V19.5C1.5 19.9148 1.83516 20.25 2.25 20.25H21.75C22.1648 20.25 22.5 19.9148 22.5 19.5V6C22.5 5.58516 22.1648 5.25 21.75 5.25ZM20.8125 18.5625H3.1875V6.9375H6V8.25C6 8.35313 6.08438 8.4375 6.1875 8.4375H7.5C7.60313 8.4375 7.6875 8.35313 7.6875 8.25V6.9375H11.1562V8.25C11.1562 8.35313 11.2406 8.4375 11.3438 8.4375H12.6562C12.7594 8.4375 12.8438 8.35313 12.8438 8.25V6.9375H16.3125V8.25C16.3125 8.35313 16.3969 8.4375 16.5 8.4375H17.8125C17.9156 8.4375 18 8.35313 18 8.25V6.9375H20.8125V18.5625Z" fill="#3F83F8"/>
</svg>
