<svg width="24" height="24" viewBox="0 0 24 24" fill="none" xmlns="http://www.w3.org/2000/svg">
<path d="M9.08108 23H3.72973C3.32692 23 3 22.692 3 22.3125V1.6875C3 1.308 3.32692 1 3.72973 1H9.08108C9.48389 1 9.81081 1.308 9.81081 1.6875V7.53492C11.0144 7.4405 13.3164 7.27733 14.8771 7.26175C16.7724 7.23883 18.2815 7.72833 19.3255 8.70275C20.4366 9.73858 21 11.3024 21 13.3493V22.2593C21 22.6388 20.6731 22.9468 20.2703 22.9468H14.9189C14.5161 22.9468 14.1892 22.6388 14.1892 22.2593V14.0854C14.1814 13.7169 13.8574 13.4062 13.4672 13.4062H10.5045C10.1231 13.4172 9.80789 13.7343 9.80789 14.1285L9.81081 22.3125C9.81081 22.692 9.48389 23 9.08108 23ZM4.45946 21.625H8.35135V14.2083C8.34843 12.9863 9.28443 12.066 10.4802 12.0312H13.4672C14.6475 12.0312 15.6263 12.946 15.6486 14.0708V21.5728H19.5405V13.3503C19.5405 11.6838 19.1222 10.449 18.3 9.68083C17.5421 8.97408 16.3901 8.60375 14.8926 8.63767C12.7988 8.65783 9.18324 8.96583 9.14724 8.9695C8.93611 8.98783 8.73957 8.92275 8.58876 8.79167C8.43795 8.6615 8.35135 8.47817 8.35135 8.28475V2.375H4.45946V21.625Z" fill="#1C64F2"/>
</svg>
