<svg width="20" height="20" viewBox="0 0 20 20" fill="none" xmlns="http://www.w3.org/2000/svg">
<path d="M4.65039 1.66858C4.68505 1.67213 4.71772 1.68439 4.74512 1.70471L15.2676 9.44592C15.3347 9.4952 15.392 9.55545 15.4375 9.62268C15.4526 9.64505 15.4671 9.66806 15.4795 9.69202L15.5117 9.76526C15.5306 9.81551 15.5434 9.86756 15.5498 9.92053C15.553 9.94677 15.5547 9.9731 15.5547 9.99963C15.5547 10.0264 15.553 10.0532 15.5498 10.0797C15.5434 10.1324 15.5305 10.184 15.5117 10.234C15.5023 10.2591 15.492 10.2842 15.4795 10.3082L15.4375 10.3776C15.392 10.4446 15.3345 10.5041 15.2676 10.5533L4.74512 18.2955C4.72996 18.3068 4.71378 18.3148 4.69727 18.3209C4.59836 18.3574 4.48388 18.3052 4.45312 18.2086C4.44799 18.1925 4.44531 18.1752 4.44531 18.1569V16.4576C4.44531 16.3502 4.4962 16.2471 4.58691 16.1813L12.9902 9.99963L4.58691 3.81897C4.56476 3.80249 4.54484 3.78393 4.52734 3.76331C4.47492 3.70152 4.44539 3.6232 4.44531 3.5426V1.84241C4.44526 1.82607 4.44749 1.81013 4.45215 1.79456C4.45684 1.77887 4.46344 1.76362 4.47266 1.74963C4.49102 1.72179 4.51757 1.69961 4.54883 1.68518C4.58018 1.67076 4.61569 1.66509 4.65039 1.66858Z" fill="#3F83F8" stroke="#3F83F8" stroke-width="0.00111607"/>
</svg>
