<svg width="24" height="24" viewBox="0 0 24 24" fill="none" xmlns="http://www.w3.org/2000/svg">
<path d="M21.75 3.75H2.25C1.83516 3.75 1.5 4.08516 1.5 4.5V19.5C1.5 19.9148 1.83516 20.25 2.25 20.25H21.75C22.1648 20.25 22.5 19.9148 22.5 19.5V4.5C22.5 4.08516 22.1648 3.75 21.75 3.75ZM20.8125 18.5625H3.1875V5.4375H20.8125V18.5625Z" fill="#3F83F8"/>
<path d="M3.1875 18.5625H20.8125V5.4375H3.1875V18.5625ZM14.25 9.84375C14.25 9.74062 14.2734 9.65625 14.3039 9.65625H17.1961C17.2266 9.65625 17.25 9.74062 17.25 9.84375V10.9688C17.25 11.0719 17.2266 11.1562 17.1961 11.1562H14.3039C14.2734 11.1562 14.25 11.0719 14.25 10.9688V9.84375ZM14.25 13.2188C14.25 13.1156 14.325 13.0312 14.4164 13.0312H18.7687C18.8602 13.0312 18.9352 13.1156 18.9352 13.2188V14.3438C18.9352 14.4469 18.8602 14.5312 18.7687 14.5312H14.4164C14.325 14.5312 14.25 14.4469 14.25 14.3438V13.2188ZM5.06719 15.5766C5.13281 14.3273 5.81484 13.2422 6.81562 12.6211C6.39141 12.1523 6.13359 11.5336 6.13359 10.8516C6.13359 9.40078 7.30313 8.22656 8.74453 8.22656C10.1859 8.22656 11.3555 9.40078 11.3555 10.8516C11.3555 11.5336 11.0977 12.1547 10.6734 12.6211C11.6719 13.2398 12.3562 14.3273 12.4219 15.5766C12.4231 15.602 12.4192 15.6274 12.4104 15.6512C12.4015 15.675 12.3879 15.6968 12.3704 15.7152C12.3528 15.7337 12.3317 15.7483 12.3084 15.7583C12.285 15.7683 12.2598 15.7735 12.2344 15.7734H11.2055C11.107 15.7734 11.0273 15.6961 11.0203 15.5977C10.9313 14.4141 9.94219 13.4766 8.74219 13.4766C7.54219 13.4766 6.55312 14.4141 6.46406 15.5977C6.45703 15.6961 6.37734 15.7734 6.27891 15.7734H5.25C5.14219 15.7734 5.05781 15.6844 5.06719 15.5766Z" fill="#111928" fill-opacity="0.7"/>
<path d="M7.53076 10.8516C7.53076 11.1748 7.65842 11.4848 7.88567 11.7133C8.11291 11.9419 8.42111 12.0703 8.74248 12.0703C9.06385 12.0703 9.37205 11.9419 9.59929 11.7133C9.82654 11.4848 9.9542 11.1748 9.9542 10.8516C9.9542 10.6915 9.92286 10.533 9.86196 10.3852C9.80107 10.2373 9.71181 10.1029 9.59929 9.98978C9.48678 9.8766 9.3532 9.78683 9.20618 9.72558C9.05917 9.66434 8.90161 9.63281 8.74248 9.63281C8.58336 9.63281 8.42579 9.66434 8.27878 9.72558C8.13176 9.78683 7.99818 9.8766 7.88567 9.98978C7.77315 10.1029 7.68389 10.2373 7.623 10.3852C7.5621 10.533 7.53076 10.6915 7.53076 10.8516Z" fill="#111928" fill-opacity="0.7"/>
<path d="M14.3038 11.1562H17.196C17.2265 11.1562 17.2499 11.0719 17.2499 10.9688V9.84375C17.2499 9.74063 17.2265 9.65625 17.196 9.65625H14.3038C14.2734 9.65625 14.2499 9.74063 14.2499 9.84375V10.9688C14.2499 11.0719 14.2734 11.1562 14.3038 11.1562ZM14.4163 14.5312H18.7687C18.8601 14.5312 18.9351 14.4469 18.9351 14.3438V13.2188C18.9351 13.1156 18.8601 13.0312 18.7687 13.0312H14.4163C14.3249 13.0312 14.2499 13.1156 14.2499 13.2188V14.3438C14.2499 14.4469 14.3249 14.5312 14.4163 14.5312ZM5.24993 15.7734H6.27884C6.37727 15.7734 6.45696 15.6961 6.46399 15.5977C6.55306 14.4141 7.54212 13.4766 8.74212 13.4766C9.94212 13.4766 10.9312 14.4141 11.0202 15.5977C11.0273 15.6961 11.107 15.7734 11.2054 15.7734H12.2343C12.2597 15.7735 12.2849 15.7683 12.3083 15.7583C12.3317 15.7483 12.3528 15.7337 12.3703 15.7152C12.3879 15.6968 12.4015 15.675 12.4103 15.6512C12.4192 15.6274 12.4231 15.602 12.4218 15.5766C12.3562 14.3273 11.6718 13.2398 10.6734 12.6211C11.1137 12.1371 11.357 11.5059 11.3554 10.8516C11.3554 9.40078 10.1859 8.22656 8.74446 8.22656C7.30306 8.22656 6.13353 9.40078 6.13353 10.8516C6.13353 11.5336 6.39134 12.1523 6.81556 12.6211C6.30726 12.9361 5.88276 13.3694 5.57829 13.8841C5.27382 14.3987 5.09844 14.9794 5.06712 15.5766C5.05774 15.6844 5.14212 15.7734 5.24993 15.7734ZM8.74212 9.63281C9.41009 9.63281 9.95384 10.1789 9.95384 10.8516C9.95384 11.5242 9.41009 12.0703 8.74212 12.0703C8.07415 12.0703 7.5304 11.5242 7.5304 10.8516C7.5304 10.1789 8.07415 9.63281 8.74212 9.63281Z" fill="#3F83F8"/>
</svg>
