<svg width="48" height="48" viewBox="0 0 48 48" fill="none" xmlns="http://www.w3.org/2000/svg">
<path d="M15.1217 28.9853C13.6571 30.1535 12.377 31.19 12.0535 31.4977C12.0423 31.5066 12.0371 31.5188 12.0422 31.5242C12.047 31.5295 12.0589 31.5275 12.0699 31.5195C12.0719 31.518 13.5228 30.4607 15.2407 29.2082C15.4416 29.5743 15.6653 29.9324 15.9123 30.2807C15.3945 30.7222 15.0017 31.0721 14.8701 31.2236C14.8626 31.2299 14.8615 31.2412 14.8678 31.2487C14.8738 31.2557 14.8841 31.257 14.8917 31.2518C14.8926 31.2511 15.3619 30.926 16.0393 30.456C16.0911 30.526 16.1437 30.5956 16.1973 30.6648C16.3396 30.8482 16.4866 31.026 16.638 31.198C14.7355 32.7098 12.432 34.5573 12.0109 34.9718C12.0011 34.9797 11.9971 34.9909 12.0023 34.9966C12.0071 35.002 12.018 35.0009 12.0276 34.9938C12.0301 34.992 14.7184 33.0495 16.8919 31.4767C20.7351 35.555 27.144 36.1408 31.6922 32.663C36.08 29.3078 37.2276 23.3235 34.6186 18.6573C34.6973 18.5298 34.7742 18.4009 34.8496 18.2708C35.0388 17.9474 35.1874 17.6679 35.3493 17.3301C35.4941 17.0283 35.7928 16.3641 35.7526 15.9688C35.7456 15.8997 35.719 15.8167 35.6732 15.7632C35.618 15.699 35.5549 15.658 35.4735 15.6338C34.9187 15.4514 33.6064 15.7689 33.0298 15.9248C32.883 15.9644 32.7382 16.0055 32.5952 16.0481C28.7184 12.351 22.5979 11.9238 18.2098 15.2793C13.9153 18.5632 12.7246 24.3653 15.1217 28.9853Z" fill="#233876"/>
<path d="M17.0841 30.8438C18.3123 29.8694 19.2763 29.1112 19.2802 29.1083C19.3668 29.0364 19.4729 28.9871 19.5801 28.9569C19.7344 28.9134 19.875 28.9156 19.9051 28.9545C19.9352 28.9936 19.9017 29.1299 19.82 29.2672C19.7768 29.3397 19.703 29.4405 19.6002 29.512C19.5154 29.5766 18.5614 30.2682 17.3569 31.14C21.2492 35.2094 27.7216 35.4853 31.9529 31.7111C35.5767 28.479 36.4016 23.3065 34.2655 19.2009C33.8992 19.7366 33.4931 20.2432 33.0275 20.7121C32.4224 21.3214 31.8378 21.7839 31.1411 22.3106C31.7495 24.554 31.0946 27.048 29.2349 28.7068C27.6709 30.1018 25.6066 30.5925 23.6922 30.2134C23.6747 30.2266 23.657 30.24 23.6392 30.2533C23.591 30.2896 23.5296 30.2933 23.4772 30.2633C23.4341 30.2385 23.4082 30.1953 23.4042 30.1495C22.2014 29.8538 21.0721 29.2094 20.1817 28.2251C20.0609 28.0915 19.9468 27.9543 19.8394 27.8138C18.9664 28.4238 17.587 29.382 16.5063 30.132C16.6867 30.3752 16.8793 30.6127 17.0841 30.8438Z" fill="#111928"/>
<path d="M15.5757 28.6236C16.7324 27.7033 17.9524 26.7405 18.8769 26.0129C18.6414 25.321 18.5299 24.5986 18.5407 23.8789C18.5154 23.87 18.4927 23.8538 18.4747 23.8313C18.4243 23.7682 18.435 23.6763 18.4986 23.6264C18.5163 23.6125 18.534 23.5987 18.5517 23.585C18.6504 21.9741 19.3621 20.3994 20.6666 19.2358C22.7815 17.3494 25.8114 17.1167 28.1483 18.452C28.4911 18.1864 28.8111 17.9499 29.1829 17.6867C29.6028 17.3888 29.9739 17.1601 30.429 16.9183C30.9343 16.6506 31.4437 16.4339 31.9737 16.2489C28.0432 12.7162 21.9792 12.6364 17.9488 16.2314C14.3596 19.4327 13.516 24.5373 15.5757 28.6236Z" fill="#111928"/>
<path d="M19.0388 26.438C18.0877 27.1323 16.8609 28.0269 15.7041 28.8703C15.8959 29.2266 16.1105 29.5746 16.3475 29.9123C17.3739 29.0499 18.6841 27.9847 19.5003 27.3248C19.3212 27.0388 19.1675 26.7422 19.0388 26.438Z" fill="#111928"/>
<path d="M29.2442 15.9483L29.4414 15.4422L27.4215 14.6663L27.2243 15.1724L27.8824 15.4253L27.2046 17.1648L27.8966 17.4308L28.5746 15.691L29.2442 15.9483Z" fill="#1C64F2"/>
<path d="M25.8583 15.851L25.8616 15.3298L24.8688 15.3235L24.8713 14.9371L25.9256 14.9438L25.929 14.4153L24.1326 14.4041L24.1172 16.812L25.971 16.8237L25.9744 16.2953L24.8626 16.2883L24.8654 15.8447L25.8583 15.851Z" fill="#1C64F2"/>
<path d="M21.6942 17.5671L21.4637 17.02C21.388 16.8402 21.3132 16.6683 21.2391 16.5042C21.1652 16.3403 21.0918 16.1851 21.0192 16.0389L21.0343 16.0326C21.1535 16.1424 21.2804 16.2513 21.4151 16.3595C21.5497 16.4676 21.6779 16.5664 21.7996 16.6557L22.5462 17.2131L23.265 16.9146L22.329 14.6931L21.7049 14.9523L21.9271 15.4797C21.9963 15.6444 22.0678 15.8028 22.1416 15.9545C22.2155 16.1062 22.2926 16.2516 22.3731 16.3904L22.3617 16.3951C22.2482 16.2865 22.128 16.1783 22.0008 16.0705C21.8738 15.9627 21.751 15.8672 21.6327 15.7839L20.94 15.27L20.1343 15.6047L21.0703 17.8261L21.6942 17.5671Z" fill="#1C64F2"/>
<path fill-rule="evenodd" clip-rule="evenodd" d="M19.41 18.5589L19.9439 18.8046L20.4823 18.2173L18.1339 17.2017L17.4712 17.9244L18.7233 20.1358L19.2397 19.5726L18.9294 19.0829L19.41 18.5589ZM18.6422 18.691L18.4002 18.3126C18.3616 18.2501 18.317 18.1823 18.2664 18.1091C18.2159 18.0358 18.17 17.9668 18.1287 17.902L18.1342 17.896C18.2034 17.9302 18.2783 17.9676 18.3588 18.0081C18.4393 18.0486 18.5129 18.0847 18.5795 18.1166L18.9872 18.3146L18.6422 18.691Z" fill="#1C64F2"/>
<path fill-rule="evenodd" clip-rule="evenodd" d="M15.6118 21.4957L17.8932 22.3124L18.5053 20.6267L17.9944 20.4438L17.6341 21.4364L15.8635 20.8026L15.6118 21.4957Z" fill="#1C64F2"/>
<path fill-rule="evenodd" clip-rule="evenodd" d="M17.766 25.0822L17.7522 24.3537L16.9283 24.3691C16.9282 24.3465 16.9288 24.3202 16.9304 24.29C16.9319 24.2598 16.9324 24.2263 16.9321 24.1895C16.9289 24.003 16.9052 23.8323 16.8613 23.6778C16.8173 23.5232 16.7513 23.3912 16.6632 23.2818C16.5906 23.1954 16.5028 23.1304 16.4 23.0867C16.2971 23.043 16.1841 23.0222 16.0608 23.0243C15.9354 23.028 15.8231 23.0589 15.7237 23.1171C15.6243 23.1753 15.5444 23.2525 15.4839 23.3486C15.421 23.4451 15.3748 23.5657 15.3451 23.7106C15.3155 23.8554 15.3025 24.0265 15.3063 24.2239C15.3107 24.4308 15.3194 24.6083 15.3326 24.7565C15.3457 24.9046 15.3606 25.0281 15.3773 25.1268L17.766 25.0822ZM15.8128 24.3899C15.8087 24.3716 15.8049 24.3443 15.8013 24.308C15.7978 24.2717 15.7954 24.2271 15.7943 24.1741C15.793 24.0337 15.8189 23.9287 15.8721 23.8591C15.9253 23.7896 15.9976 23.7541 16.089 23.7527C16.1944 23.7523 16.2777 23.7924 16.3389 23.8734C16.4 23.9544 16.4324 24.0669 16.4363 24.211C16.4369 24.2494 16.4368 24.2819 16.4359 24.3084C16.4349 24.3349 16.4337 24.3583 16.4322 24.3783L15.8128 24.3899Z" fill="#1C64F2"/>
<path fill-rule="evenodd" clip-rule="evenodd" d="M34.4343 24.4483C34.4676 24.3659 34.4951 24.2517 34.5169 24.1061C34.5387 23.9605 34.546 23.8036 34.5387 23.6356C34.5228 23.369 34.4752 23.1512 34.396 22.9823C34.317 22.8134 34.2171 22.6903 34.0964 22.6129C33.9757 22.5356 33.845 22.5008 33.7043 22.5087C33.5361 22.5163 33.3955 22.5809 33.2825 22.7025C33.1695 22.824 33.0794 23.0093 33.0124 23.2584C32.967 23.4332 32.9273 23.561 32.8931 23.6418C32.8589 23.7226 32.8126 23.7641 32.7546 23.766C32.6999 23.7685 32.6548 23.7411 32.6195 23.6838C32.5841 23.6265 32.5632 23.5417 32.5565 23.4292C32.5511 23.2925 32.5582 23.1735 32.5776 23.0722C32.5971 22.971 32.6178 22.8901 32.6399 22.8295L32.111 22.7023C32.0808 22.7929 32.0574 22.8994 32.041 23.0219C32.0247 23.1444 32.0204 23.2867 32.0282 23.4488C32.0516 23.7971 32.1389 24.0636 32.2899 24.2479C32.4409 24.4322 32.626 24.5202 32.8447 24.5114C33.0229 24.4988 33.1674 24.4202 33.2778 24.2757C33.3883 24.1311 33.4735 23.9394 33.5335 23.7007C33.5703 23.5449 33.6074 23.432 33.6448 23.362C33.6821 23.292 33.7297 23.2562 33.7873 23.2544C33.8491 23.251 33.8989 23.2794 33.937 23.3394C33.9751 23.3996 33.9977 23.4926 34.005 23.6188C34.0108 23.7591 34.0022 23.8923 33.9789 24.0182C33.9557 24.1441 33.9267 24.2509 33.8918 24.3382L34.4343 24.4483Z" fill="#1C64F2"/>
<path fill-rule="evenodd" clip-rule="evenodd" d="M33.7266 27.5763C33.7857 27.5095 33.85 27.4111 33.9195 27.281C33.9891 27.151 34.0486 27.0056 34.0983 26.8447C34.1729 26.5881 34.2012 26.367 34.1834 26.1816C34.1656 25.9962 34.1128 25.8471 34.0251 25.7341C33.9374 25.6212 33.8259 25.5451 33.6906 25.5057C33.5294 25.4573 33.3752 25.4716 33.2277 25.5487C33.0803 25.6258 32.9332 25.7707 32.7863 25.9832C32.6847 26.1329 32.6043 26.2402 32.545 26.3051C32.4856 26.3699 32.4281 26.3936 32.3727 26.3762C32.3203 26.3604 32.2871 26.3197 32.2729 26.2539C32.259 26.1882 32.2676 26.1012 32.299 25.9931C32.3399 25.8624 32.3865 25.7526 32.439 25.6636C32.4913 25.5746 32.5382 25.5051 32.5794 25.4553L32.1236 25.1602C32.0647 25.2356 32.0068 25.3282 31.9501 25.4383C31.8935 25.5484 31.8417 25.6811 31.7945 25.8364C31.6994 26.1725 31.6922 26.4525 31.7726 26.6764C31.853 26.9003 31.9978 27.0444 32.207 27.1087C32.3793 27.1559 32.5418 27.1297 32.6945 27.0301C32.8472 26.9305 32.992 26.7779 33.1287 26.5728C33.2158 26.4381 33.2887 26.3441 33.3475 26.2904C33.4063 26.2368 33.4631 26.2188 33.5181 26.2363C33.5773 26.2536 33.6149 26.2968 33.6305 26.3661C33.6462 26.4353 33.6362 26.5306 33.6007 26.6518C33.5592 26.786 33.5062 26.9086 33.4418 27.0197C33.3776 27.1308 33.3143 27.2217 33.2522 27.2925L33.7266 27.5763Z" fill="#1C64F2"/>
<path fill-rule="evenodd" clip-rule="evenodd" d="M32.3973 28.2868L31.9726 27.9804L31.389 28.7781L31.0742 28.5509L31.6939 27.7039L31.2634 27.3933L30.2075 28.8365L32.1695 30.2518L33.2592 28.7625L32.8286 28.4519L32.1751 29.3451L31.8137 29.0844L32.3973 28.2868Z" fill="#1C64F2"/>
<path fill-rule="evenodd" clip-rule="evenodd" d="M29.4091 32.4248L30.0195 32.0203L29.5139 31.2683L29.613 31.2027C29.705 31.1376 29.7899 31.1078 29.8676 31.1134C29.9454 31.119 30.0378 31.1702 30.1448 31.2669C30.2617 31.3699 30.3602 31.4507 30.4403 31.5092C30.5204 31.5677 30.5794 31.6062 30.6169 31.6242L31.2444 31.2083C31.2108 31.1907 31.1622 31.1565 31.0988 31.106C31.0354 31.0555 30.9657 30.9989 30.89 30.9359C30.8142 30.8729 30.7413 30.814 30.6711 30.759C30.5847 30.691 30.4975 30.6418 30.4098 30.6112C30.3219 30.5807 30.2308 30.5749 30.1362 30.5939L30.1302 30.585C30.2036 30.4922 30.2529 30.3773 30.2779 30.2402C30.3031 30.103 30.2759 29.97 30.1967 29.8406C30.1316 29.7442 30.0558 29.6726 29.9693 29.626C29.8828 29.5794 29.7864 29.556 29.68 29.5559C29.555 29.556 29.4202 29.5866 29.2756 29.6475C29.131 29.7084 28.9712 29.7973 28.7962 29.9142C28.642 30.017 28.5044 30.1146 28.3834 30.2071C28.2624 30.2996 28.1622 30.3811 28.0825 30.4516L29.4091 32.4248ZM28.9386 30.4123C28.9514 30.3993 28.9736 30.3807 29.0053 30.3562C29.037 30.3318 29.0815 30.3005 29.139 30.2622C29.2422 30.1946 29.3345 30.163 29.4161 30.1678C29.4977 30.1724 29.5638 30.2121 29.6145 30.2866C29.6644 30.3625 29.6727 30.4433 29.6393 30.5292C29.6059 30.6152 29.5311 30.6973 29.4151 30.7757L29.2545 30.882L28.9386 30.4123Z" fill="#1C64F2"/>
<path fill-rule="evenodd" clip-rule="evenodd" d="M26.0591 33.4472L26.7757 33.2901L26.598 32.491C26.6202 32.4864 26.6464 32.482 26.6764 32.4775C26.7066 32.4731 26.7397 32.4669 26.7759 32.4594C26.9595 32.4194 27.1233 32.3628 27.2672 32.2895C27.4111 32.2162 27.5284 32.1259 27.6191 32.0186C27.6901 31.9309 27.7371 31.8327 27.7598 31.7239C27.7826 31.6151 27.7809 31.501 27.7545 31.3814C27.7261 31.2601 27.6734 31.1569 27.5964 31.0715C27.5193 30.9862 27.4274 30.9236 27.3205 30.8838C27.2127 30.8416 27.0846 30.8204 26.9357 30.8201C26.7869 30.8198 26.6154 30.8409 26.4213 30.8835C26.2178 30.9285 26.0443 30.972 25.9007 31.0141C25.757 31.0561 25.638 31.0949 25.5439 31.1307L26.0591 33.4472ZM26.3575 31.4092C26.3748 31.4017 26.401 31.3926 26.436 31.382C26.4711 31.3713 26.5147 31.3604 26.5668 31.3488C26.7052 31.3198 26.814 31.3243 26.8931 31.3623C26.9721 31.4003 27.0215 31.4637 27.041 31.5524C27.0622 31.655 27.0389 31.7441 26.9711 31.8195C26.9033 31.8949 26.7986 31.9487 26.6569 31.9808C26.6193 31.989 26.5873 31.9953 26.5608 31.9997C26.5344 32.004 26.511 32.0074 26.4911 32.0099L26.3575 31.4092Z" fill="#1C64F2"/>
<path fill-rule="evenodd" clip-rule="evenodd" d="M24.6999 33.5364L24.1019 32.1957L25.0268 31.1499L24.192 31.0201L23.9657 31.3754C23.9279 31.4348 23.8916 31.4929 23.8567 31.5497C23.8219 31.6064 23.7836 31.6705 23.7418 31.742L23.7337 31.7408C23.7145 31.6682 23.6954 31.5981 23.6765 31.5307C23.6575 31.4632 23.6367 31.392 23.6136 31.3171L23.4869 30.9104L22.6481 30.7798L23.2041 32.0706L22.2441 33.1544L23.0748 33.2837L23.319 32.9203C23.3633 32.8521 23.406 32.7875 23.4471 32.7265C23.4883 32.6655 23.5265 32.6028 23.562 32.5387L23.5701 32.54C23.5933 32.6132 23.6162 32.6855 23.6392 32.7568C23.6621 32.8282 23.6875 32.9045 23.7156 32.9857L23.8529 33.4048L24.6999 33.5364Z" fill="#1C64F2"/>
<path fill-rule="evenodd" clip-rule="evenodd" d="M21.4719 31.8035L21.7304 31.3497L20.8661 30.8645L21.0576 30.5282L21.9755 31.0435L22.2374 30.5835L20.6736 29.7056L19.48 31.8017L21.0937 32.7078L21.3557 32.2478L20.3878 31.7043L20.6077 31.3183L21.4719 31.8035Z" fill="#1C64F2"/>
<path fill-rule="evenodd" clip-rule="evenodd" d="M35.443 15.9463C35.427 15.93 35.4095 15.9196 35.3874 15.9131C35.339 15.8978 35.297 15.8885 35.2466 15.8817C34.7248 15.8178 33.7271 16.0376 33.107 16.2063C32.6724 16.3237 32.3095 16.4378 31.8862 16.5903C31.4089 16.7642 31.0159 16.9386 30.5671 17.1755C30.1243 17.4122 29.7629 17.6351 29.3531 17.9242C28.8998 18.246 28.5238 18.5273 28.0869 18.8712L28.0859 18.8719C27.0351 19.6843 26.2164 20.4598 25.3498 21.464C25.3216 21.4966 25.2851 21.5138 25.2418 21.5149C24.9083 21.5233 24.6271 21.5456 24.2965 21.59C22.5203 21.8268 20.7194 22.4415 19.2329 23.4513C19.347 23.4321 19.4437 23.418 19.5586 23.404C19.9392 23.3555 20.2654 23.3485 20.6477 23.3809C20.9966 23.4089 21.2879 23.4824 21.6078 23.6233C21.9625 23.7803 22.2248 24.0023 22.4366 24.3254L22.4931 24.4113L22.0233 25.0299C21.8183 25.2968 21.6528 25.5278 21.4662 25.8075C21.433 25.8585 21.3916 25.96 21.434 26.0209L22.0575 26.8247C22.0992 26.8751 22.2096 26.8671 22.2725 26.847C22.5603 26.7509 22.8005 26.6617 23.0812 26.5469L23.8941 26.218L23.9631 26.2936C24.1749 26.5251 24.3069 26.7647 24.3894 27.0664C24.4784 27.3989 24.4986 27.6952 24.4555 28.0365C24.3873 28.5982 24.227 29.0859 23.9977 29.5899C24.5921 29.0792 25.0475 28.5937 25.5186 27.969C26.1011 27.1978 26.566 26.4114 26.959 25.5401C27.1483 25.1217 27.2848 24.7579 27.4168 24.3184C27.429 24.2774 27.4551 24.2469 27.4939 24.2283C28.693 23.6528 29.6572 23.0651 30.7167 22.2638C31.0838 21.9879 31.3904 21.7507 31.7499 21.4649C32.1441 21.1496 32.462 20.8645 32.8181 20.507C33.5115 19.8072 34.1001 18.9813 34.5943 18.1256C34.7784 17.8083 34.9238 17.5346 35.0835 17.2045C35.1823 16.9997 35.492 16.3253 35.4598 16C35.4581 15.9802 35.453 15.9637 35.443 15.9463Z" fill="#31C48D"/>
<path fill-rule="evenodd" clip-rule="evenodd" d="M30.8197 22.5528C29.7912 23.3242 28.8472 23.8983 27.6803 24.4632C27.5493 24.8936 27.4144 25.25 27.2275 25.6596C26.8234 26.5528 26.3535 27.3522 25.754 28.1444C25.2361 28.8313 24.7156 29.3816 24.082 29.9052C25.6418 30.1301 27.288 29.7523 28.6354 28.7221C30.5869 27.2296 31.3657 24.7857 30.8197 22.5528Z" fill="#1C64F2"/>
<path fill-rule="evenodd" clip-rule="evenodd" d="M23.5645 29.8076C24.0591 28.8649 24.5264 27.4561 23.8115 26.5669L23.1929 26.8172C22.9057 26.9365 22.6592 27.028 22.3636 27.1249C22.1835 27.1833 21.9562 27.1662 21.829 27.0086L21.1936 26.1889C21.0753 26.0281 21.1167 25.8047 21.2205 25.6479C21.4112 25.362 21.5802 25.126 21.7896 24.8534L22.1324 24.4022C21.9571 24.1691 21.7563 24.0093 21.4889 23.8903C21.2003 23.7641 20.9377 23.6979 20.6235 23.6721C20.2625 23.6425 19.9546 23.6491 19.5953 23.6939C19.3523 23.7237 19.1372 23.7602 18.9139 23.8108C18.8958 24.4677 18.9858 25.1297 19.1877 25.7683C19.9237 25.1895 20.4081 24.8101 20.4107 24.8081C20.4984 24.7354 20.6052 24.6849 20.7131 24.6534C20.8682 24.608 21.0088 24.608 21.0383 24.6463C21.0678 24.6846 21.0323 24.8205 20.9485 24.958C20.9043 25.0305 20.829 25.1318 20.725 25.2043C20.6657 25.2496 20.1287 25.6423 19.3478 26.2125C19.4697 26.5126 19.6176 26.806 19.7919 27.0894C20.0875 26.851 20.2688 26.7057 20.2711 26.7039C20.3722 26.6192 20.4981 26.5637 20.6266 26.5317C20.8114 26.4858 20.9819 26.4957 21.0203 26.5456C21.0588 26.5955 21.0255 26.7627 20.9335 26.9288C20.885 27.0164 20.8009 27.1375 20.6799 27.2208C20.6321 27.2573 20.4366 27.3956 20.1436 27.6008C20.1511 27.6105 20.1586 27.6202 20.1661 27.6299C21.0479 28.7668 22.2595 29.5028 23.5645 29.8076Z" fill="#1C64F2"/>
<path fill-rule="evenodd" clip-rule="evenodd" d="M18.9507 23.2914C20.5099 22.2037 22.3841 21.5485 24.2575 21.3009C24.5764 21.258 24.8475 21.2356 25.1692 21.2252C26.0172 20.2493 26.8174 19.4897 27.8311 18.6994C25.7964 17.6046 23.2177 17.728 21.2659 19.2204C19.9181 20.2512 19.1297 21.7359 18.9507 23.2914Z" fill="#1C64F2"/>
</svg>
