<svg width="80" height="80" viewBox="0 0 80 80" fill="none" xmlns="http://www.w3.org/2000/svg">
<path d="M10.4056 56.6177C5.5237 60.5117 1.25678 63.967 0.178313 64.9926C0.141113 65.0223 0.123734 65.0627 0.14077 65.081C0.156762 65.0986 0.196396 65.0917 0.232901 65.0651C0.239507 65.0602 5.0759 61.536 10.8023 57.361C11.4719 58.5813 12.2177 59.7747 13.041 60.9357C11.3151 62.4076 10.0058 63.5738 9.56706 64.0788C9.54203 64.0999 9.5382 64.1375 9.55941 64.1624C9.57923 64.1858 9.61365 64.1903 9.63903 64.1727C9.64216 64.1706 11.2063 63.0867 13.4644 61.5201C13.6369 61.7535 13.8124 61.9854 13.9911 62.216C14.4653 62.8274 14.9552 63.4201 15.46 63.9935C9.11822 69.0329 1.44 75.1912 0.0364686 76.5727C0.00378792 76.5993 -0.00977381 76.6366 0.00760954 76.6556C0.0236022 76.6735 0.0601059 76.6697 0.0920913 76.6462C0.100435 76.64 9.06121 70.1652 16.3062 64.9225C29.1171 78.5169 50.4802 80.4695 65.6405 68.8769C80.2665 57.6927 84.0919 37.745 75.3954 22.1912C75.6575 21.7662 75.9141 21.3364 76.1655 20.9028C76.7961 19.8247 77.2912 18.893 77.8311 17.7673C78.3137 16.7613 79.3094 14.5471 79.1752 13.2295C79.1519 12.9992 79.0633 12.7224 78.9106 12.5442C78.7267 12.3302 78.5164 12.1935 78.2449 12.1127C76.3956 11.5048 72.0213 12.5632 70.0994 13.0828C69.6098 13.215 69.1273 13.3517 68.6506 13.4939C55.7278 1.17018 35.3264 -0.253814 20.6994 10.931C6.38417 21.8774 2.4152 41.2178 10.4056 56.6177Z" fill="#1E429F"/>
<path d="M16.947 62.8123C21.0411 59.5646 24.2546 57.0373 24.2674 57.0276C24.556 56.7877 24.9096 56.6234 25.267 56.5229C25.7815 56.3779 26.2502 56.3852 26.3503 56.515C26.4508 56.6451 26.3392 57.0994 26.0666 57.5572C25.9227 57.7988 25.6769 58.1347 25.3341 58.3733C25.0514 58.5887 21.8713 60.894 17.8565 63.8C30.8307 77.3644 52.4055 78.284 66.5097 65.7035C78.589 54.9298 81.3387 37.6882 74.2185 24.0029C72.9975 25.7884 71.6437 27.4771 70.0917 29.0403C68.0749 31.0711 66.1262 32.6129 63.8038 34.3686C65.8317 41.8466 63.6487 50.16 57.4498 55.6892C52.2366 60.3392 45.3555 61.9748 38.9741 60.711C38.9157 60.7552 38.8566 60.7998 38.7975 60.8443C38.6369 60.9651 38.4321 60.9775 38.2576 60.8774C38.1136 60.7949 38.0274 60.651 38.0142 60.498C34.0049 59.5124 30.2404 57.3646 27.2723 54.0837C26.8697 53.6383 26.4894 53.1809 26.1313 52.7125C23.2213 54.7458 18.6234 57.94 15.0212 60.4397C15.6224 61.2506 16.2645 62.0422 16.947 62.8123Z" fill="#0C1B43"/>
<path d="M11.9191 55.4119C15.7747 52.344 19.8413 49.1349 22.9231 46.7095C22.138 44.4031 21.7664 41.9953 21.8022 39.596C21.7181 39.5664 21.6423 39.5125 21.5821 39.4376C21.4142 39.227 21.45 38.9208 21.6621 38.7544C21.7208 38.7082 21.7799 38.6623 21.839 38.6163C22.1679 33.2469 24.5404 27.998 28.8887 24.1192C35.9383 17.8311 46.0381 17.0554 53.8275 21.5066C54.9703 20.6211 56.0369 19.8327 57.2764 18.9555C58.6761 17.9627 59.9131 17.2001 61.43 16.394C63.1144 15.502 64.8124 14.7795 66.5789 14.1629C53.4774 2.38705 33.2641 2.12124 19.8292 14.1046C7.86526 24.7754 5.05333 41.7909 11.9191 55.4119Z" fill="#0C1B43"/>
<path d="M23.4633 48.1265C20.293 50.4408 16.2037 53.4227 12.3477 56.2341C12.9871 57.422 13.7022 58.5819 14.4925 59.7076C17.9139 56.8327 22.2809 53.2822 25.0018 51.0825C24.4048 50.129 23.8923 49.1404 23.4633 48.1265Z" fill="#0C1B43"/>
<path d="M57.4805 13.1611L58.1379 11.474L51.405 8.8877L50.7475 10.5747L52.9413 11.4178L50.6818 17.2163L52.9886 18.1028L55.2484 12.3036L57.4805 13.1611Z" fill="#1C64F2"/>
<path d="M46.1934 12.837L46.2046 11.0995L42.8951 11.0785L42.9035 9.79047L46.418 9.81291L46.4292 8.05129L40.4413 8.01367L40.3898 16.0402L46.5693 16.0792L46.5804 14.3179L42.8746 14.2945L42.884 12.8159L46.1934 12.837Z" fill="#1C64F2"/>
<path d="M32.3146 18.557L31.5462 16.7333C31.2938 16.134 31.0446 15.5609 30.7977 15.0141C30.5512 14.4676 30.3065 13.9502 30.0645 13.4631L30.1149 13.442C30.5123 13.8079 30.9354 14.1711 31.3842 14.5315C31.8331 14.8919 32.2603 15.2212 32.6661 15.5192L35.1547 17.3771L37.5504 16.3818L34.4305 8.97705L32.3504 9.84111L33.0909 11.5989C33.3218 12.1482 33.5599 12.676 33.8061 13.1817C34.0522 13.6875 34.3091 14.1721 34.5775 14.6347L34.5397 14.6503C34.1614 14.2885 33.7605 13.9277 33.3367 13.5684C32.9133 13.209 32.5041 12.8907 32.1095 12.6132L29.8006 10.8999L27.1149 12.0156L30.2348 19.4204L32.3146 18.557Z" fill="#1C64F2"/>
<path fill-rule="evenodd" clip-rule="evenodd" d="M24.7003 21.8629L26.48 22.6821L28.2747 20.7244L20.4466 17.3389L18.2375 19.7481L22.4113 27.1194L24.1326 25.2421L23.0983 23.6096L24.7003 21.8629ZM22.1408 22.3034L21.3342 21.042C21.2056 20.8338 21.0568 20.6077 20.8882 20.3636C20.7199 20.1192 20.5669 19.8893 20.4292 19.6732L20.4477 19.6532C20.6782 19.7674 20.9278 19.8921 21.1962 20.027C21.4646 20.162 21.71 20.2825 21.9319 20.3888L23.2909 21.0485L22.1408 22.3034Z" fill="#1C64F2"/>
<path fill-rule="evenodd" clip-rule="evenodd" d="M12.0386 31.6523L19.6432 34.3747L21.6836 28.7556L19.9807 28.146L18.7795 31.4545L12.8776 29.3418L12.0386 31.6523Z" fill="#1C64F2"/>
<path fill-rule="evenodd" clip-rule="evenodd" d="M19.2193 43.6072L19.1734 41.1787L16.4269 41.2301C16.4265 41.1549 16.4286 41.0672 16.4338 40.9664C16.439 40.8659 16.4408 40.7541 16.4397 40.6315C16.429 40.0098 16.35 39.4409 16.2037 38.9258C16.057 38.4104 15.8369 37.9706 15.5434 37.6057C15.3015 37.3178 15.0087 37.101 14.6659 36.9554C14.3231 36.8097 13.9463 36.7406 13.5353 36.7475C13.1174 36.76 12.743 36.8629 12.4117 37.0569C12.0803 37.2509 11.814 37.508 11.6124 37.8284C11.4027 38.1501 11.2487 38.5523 11.1496 39.0353C11.0509 39.5179 11.0078 40.0882 11.0203 40.7461C11.0349 41.4359 11.0641 42.0276 11.1079 42.5216C11.1517 43.0152 11.2014 43.4267 11.2571 43.7557L19.2193 43.6072ZM12.7086 41.2995C12.695 41.2384 12.6821 41.1476 12.6703 41.0264C12.6585 40.9056 12.6505 40.7568 12.647 40.5801C12.6425 40.1123 12.7291 39.7623 12.9064 39.5303C13.0837 39.2987 13.3246 39.1803 13.6292 39.1754C13.9807 39.174 14.2585 39.308 14.4622 39.5779C14.6659 39.8479 14.7741 40.2228 14.7869 40.7033C14.789 40.8311 14.7887 40.9395 14.7855 41.0278C14.7824 41.1162 14.7782 41.1942 14.7734 41.2608L12.7086 41.2995Z" fill="#1C64F2"/>
<path fill-rule="evenodd" clip-rule="evenodd" d="M74.7818 41.4945C74.8927 41.2197 74.9844 40.8393 75.0571 40.3539C75.1298 39.8685 75.1541 39.3455 75.1298 38.7856C75.0766 37.8967 74.918 37.1707 74.6542 36.6077C74.3906 36.045 74.0576 35.6345 73.6553 35.3766C73.2531 35.1188 72.8174 35.0028 72.3484 35.029C71.7876 35.0546 71.319 35.27 70.9425 35.6752C70.5656 36.0802 70.2656 36.6978 70.042 37.528C69.8908 38.1107 69.7583 38.5367 69.6443 38.8063C69.5302 39.0756 69.3762 39.2137 69.1826 39.2202C69.0004 39.2285 68.8502 39.137 68.7324 38.9461C68.6145 38.7552 68.5446 38.4725 68.5224 38.0976C68.5043 37.6419 68.5279 37.2453 68.5926 36.9077C68.6576 36.57 68.7268 36.3004 68.8005 36.0985L67.0375 35.6746C66.9367 35.9766 66.8588 36.3315 66.8042 36.7399C66.7496 37.1483 66.7353 37.6226 66.7614 38.1628C66.8393 39.3238 67.1303 40.212 67.6337 40.8265C68.1371 41.441 68.7539 41.7341 69.483 41.7047C70.0771 41.6629 70.5586 41.4009 70.9268 40.919C71.295 40.4371 71.579 39.7981 71.779 39.0024C71.9017 38.4832 72.0254 38.1069 72.1499 37.8736C72.2744 37.6402 72.4329 37.5208 72.6252 37.5149C72.831 37.5035 72.9972 37.5981 73.1241 37.7983C73.251 37.9989 73.3264 38.3089 73.3508 38.7293C73.3702 39.1971 73.3414 39.641 73.2638 40.0608C73.1863 40.4806 73.0897 40.8365 72.9735 41.1275L74.7818 41.4945Z" fill="#1C64F2"/>
<path fill-rule="evenodd" clip-rule="evenodd" d="M72.4214 51.921C72.6186 51.6983 72.8327 51.3704 73.0646 50.9368C73.2965 50.5032 73.495 50.0185 73.6605 49.4824C73.9091 48.627 74.0037 47.8899 73.9442 47.272C73.8848 46.6541 73.7088 46.157 73.4165 45.7803C73.1241 45.4041 72.7524 45.1503 72.3015 45.0192C71.7643 44.8576 71.2501 44.9052 70.7585 45.1624C70.2673 45.4193 69.7767 45.9022 69.2872 46.6106C68.9486 47.1098 68.6805 47.4674 68.4827 47.6835C68.2849 47.8996 68.0933 47.9787 67.9084 47.9207C67.7338 47.8678 67.6233 47.7322 67.576 47.513C67.5294 47.2941 67.5583 47.0041 67.6629 46.6437C67.7992 46.2081 67.9546 45.8421 68.1295 45.5453C68.304 45.2487 68.4601 45.0171 68.5974 44.851L67.0781 43.8672C66.8817 44.1185 66.6887 44.4275 66.5 44.7944C66.3112 45.1614 66.1384 45.6036 65.9813 46.1214C65.6642 47.2416 65.6402 48.1751 65.9082 48.9214C66.1763 49.6678 66.6589 50.148 67.3563 50.3623C67.9306 50.5198 68.4723 50.4324 68.9813 50.1003C69.4903 49.7682 69.9728 49.2597 70.4286 48.5759C70.7189 48.1271 70.9619 47.8136 71.158 47.6348C71.3537 47.456 71.5432 47.3959 71.7264 47.4543C71.9239 47.5119 72.0491 47.6559 72.1012 47.8868C72.1534 48.1178 72.1204 48.4354 72.0018 48.8393C71.8634 49.2867 71.6868 49.6954 71.4723 50.0658C71.2581 50.4359 71.0471 50.739 70.8402 50.9751L72.4214 51.921Z" fill="#1C64F2"/>
<path fill-rule="evenodd" clip-rule="evenodd" d="M67.9908 54.2892L66.5751 53.268L64.6299 55.9269L63.5803 55.1698L65.6461 52.3463L64.211 51.311L60.6915 56.1216L67.2315 60.8392L70.8639 55.8751L69.4284 54.8398L67.2503 57.8169L66.0456 56.948L67.9908 54.2892Z" fill="#1C64F2"/>
<path fill-rule="evenodd" clip-rule="evenodd" d="M58.0308 68.0826L60.0653 66.7342L58.3802 64.2276L58.7105 64.0087C59.0171 63.792 59.3001 63.6925 59.5591 63.7112C59.8185 63.7298 60.1265 63.9003 60.4832 64.2228C60.8726 64.5663 61.2012 64.8355 61.4682 65.0306C61.7352 65.2256 61.9316 65.3537 62.0568 65.4138L64.1483 64.0274C64.0364 63.9687 63.8744 63.8548 63.663 63.6867C63.4516 63.5182 63.2194 63.3294 62.967 63.1195C62.7146 62.9096 62.4716 62.7132 62.2376 62.5299C61.9494 62.3031 61.6587 62.1391 61.3663 62.0372C61.0736 61.9354 60.7697 61.9161 60.4544 61.9796L60.4346 61.9499C60.679 61.6406 60.8434 61.2574 60.9269 60.8003C61.0106 60.3433 60.9203 59.8997 60.656 59.4685C60.4391 59.1471 60.1863 58.9086 59.8981 58.7532C59.6099 58.5979 59.2883 58.5199 58.9337 58.5195C58.5172 58.5199 58.0677 58.6217 57.5858 58.8247C57.1039 59.0277 56.5709 59.3242 55.9879 59.714C55.4737 60.0564 55.0151 60.382 54.6118 60.6902C54.2085 60.9985 53.8744 61.2702 53.6088 61.5053L58.0308 68.0826ZM56.4625 61.3741C56.5052 61.3309 56.5789 61.2688 56.6846 61.1873C56.7903 61.1058 56.9388 61.0016 57.1303 60.8739C57.4745 60.6485 57.7822 60.5432 58.0541 60.559C58.326 60.5746 58.5464 60.7068 58.7154 60.9553C58.8819 61.208 58.9094 61.4777 58.7981 61.7638C58.6868 62.0504 58.4376 62.3241 58.0506 62.5854L57.5156 62.94L56.4625 61.3741Z" fill="#1C64F2"/>
<path fill-rule="evenodd" clip-rule="evenodd" d="M46.8631 71.4904L49.2519 70.9667L48.6595 68.3031C48.7335 68.2879 48.8208 68.273 48.9209 68.2582C49.0214 68.2433 49.1319 68.223 49.2526 68.1978C49.8645 68.0645 50.4103 67.8757 50.8901 67.6316C51.3699 67.3872 51.7606 67.0862 52.0631 66.7285C52.2999 66.4362 52.4563 66.1089 52.5321 65.7461C52.6083 65.3836 52.6024 65.0032 52.5144 64.6045C52.4198 64.2002 52.2443 63.8561 51.9873 63.5716C51.7304 63.2871 51.4241 63.0786 51.0677 62.9457C50.7086 62.8052 50.2813 62.7344 49.7852 62.7334C49.2891 62.7324 48.7175 62.8028 48.0705 62.9447C47.3922 63.0948 46.8137 63.2399 46.335 63.38C45.8562 63.5202 45.4595 63.6496 45.1459 63.7687L46.8631 71.4904ZM47.8577 64.6973C47.9154 64.6721 48.0027 64.6417 48.1195 64.6065C48.2364 64.571 48.3817 64.5344 48.5555 64.4957C49.0169 64.3991 49.3795 64.4143 49.643 64.5409C49.9065 64.6676 50.071 64.8789 50.136 65.1744C50.2069 65.5165 50.1291 65.8134 49.9031 66.0647C49.6771 66.316 49.328 66.4955 48.8559 66.6025C48.7304 66.6298 48.6236 66.6509 48.5353 66.6654C48.4474 66.6799 48.3695 66.6913 48.3031 66.6996L47.8577 64.6973Z" fill="#1C64F2"/>
<path fill-rule="evenodd" clip-rule="evenodd" d="M42.3322 71.788L40.3391 67.3189L43.4218 63.8329L40.6395 63.4L39.885 64.5844C39.7588 64.7826 39.6378 64.9763 39.5217 65.1654C39.4056 65.3546 39.278 65.5683 39.1386 65.8065L39.1115 65.8024C39.0475 65.5604 38.9839 65.327 38.9209 65.1023C38.8577 64.8772 38.7881 64.6397 38.7113 64.3901L38.2889 63.0344L35.4929 62.5991L37.3464 66.9019L34.1464 70.5145L36.9152 70.9457L37.7291 69.7343C37.8769 69.5068 38.0194 69.2914 38.1564 69.0881C38.2937 68.8847 38.421 68.6759 38.5392 68.4622L38.5663 68.4664C38.6435 68.7104 38.72 68.9514 38.7965 69.1892C38.873 69.4271 38.9578 69.6815 39.0513 69.9521L39.5088 71.3492L42.3322 71.788Z" fill="#1C64F2"/>
<path fill-rule="evenodd" clip-rule="evenodd" d="M31.573 66.0115L32.4345 64.4991L29.5537 62.8818L30.192 61.7606L33.2515 63.4783L34.1245 61.9449L28.9119 59.0186L24.9332 66.0056L30.3123 69.0259L31.1857 67.4928L27.9593 65.6811L28.6922 64.3942L31.573 66.0115Z" fill="#1C64F2"/>
<path fill-rule="evenodd" clip-rule="evenodd" d="M78.144 13.1545C78.0905 13.1 78.0325 13.0655 77.9587 13.0437C77.7974 12.993 77.6573 12.9619 77.4894 12.9391C75.75 12.7261 72.4242 13.4587 70.3573 14.021C68.9086 14.4125 67.6991 14.7929 66.2879 15.3011C64.697 15.8807 63.387 16.462 61.891 17.2519C60.4151 18.0407 59.2105 18.7839 57.8445 19.7474C56.3332 20.8203 55.0798 21.7579 53.6238 22.904L53.6203 22.9064C50.1176 25.6146 47.3887 28.1996 44.5 31.5467C44.4061 31.6555 44.2844 31.7128 44.1401 31.7166C43.0283 31.7445 42.091 31.8188 40.9889 31.9669C35.0685 32.756 29.0653 34.8052 24.1104 38.171C24.4907 38.1071 24.813 38.0602 25.1961 38.0136C26.4647 37.8517 27.5519 37.8286 28.8264 37.9366C29.9894 38.0298 30.9604 38.2749 32.0267 38.7444C33.2091 39.2677 34.0832 40.0079 34.7893 41.0849L34.9777 41.3711L33.4115 43.4331C32.7283 44.3227 32.1766 45.0928 31.5546 46.0253C31.444 46.1951 31.306 46.5334 31.4472 46.7364L33.5255 49.4159C33.6646 49.5837 34.0328 49.5571 34.2424 49.4902C35.2016 49.1698 36.0023 48.8726 36.9379 48.4897L39.6476 47.3933L39.8777 47.6453C40.5835 48.4172 41.0236 49.2157 41.2987 50.2217C41.5952 51.3298 41.6627 52.3174 41.5191 53.4553C41.2917 55.3273 40.7573 56.9533 39.9928 58.6331C41.9742 56.9308 43.4924 55.3125 45.0625 53.2302C47.0042 50.6594 48.5541 48.0382 49.8641 45.1339C50.4951 43.7393 50.9499 42.5265 51.39 41.0615C51.4307 40.9248 51.5176 40.8233 51.647 40.7611C55.6441 38.8428 58.8579 36.8837 62.3895 34.2128C63.6133 33.2932 64.6354 32.5026 65.8335 31.5498C67.1477 30.4987 68.2074 29.5487 69.3943 28.357C71.7056 26.024 73.6675 23.2713 75.3151 20.4188C75.9287 19.3611 76.4134 18.4487 76.9456 17.3485C77.2749 16.6657 78.3075 14.4177 78.2 13.3334C78.1945 13.2674 78.1774 13.2125 78.144 13.1545Z" fill="#31C48D"/>
<path fill-rule="evenodd" clip-rule="evenodd" d="M62.7327 35.1763C59.3043 37.7478 56.1576 39.6613 52.2679 41.5444C51.8312 42.9791 51.3817 44.167 50.7587 45.5323C49.4115 48.5097 47.8452 51.1744 45.8468 53.8149C44.1207 56.1047 42.3855 57.9388 40.2737 59.6842C45.4731 60.434 50.9603 59.1747 55.4515 55.7405C61.9567 50.7657 64.5527 42.6194 62.7327 35.1763Z" fill="#1C64F2"/>
<path fill-rule="evenodd" clip-rule="evenodd" d="M38.549 59.359C40.1976 56.2165 41.7552 51.5206 39.3722 48.5566L37.3102 49.391C36.3528 49.7887 35.5312 50.0935 34.5459 50.4166C33.9455 50.6113 33.188 50.5543 32.7638 50.0289L30.6458 47.2966C30.2516 46.7605 30.3896 46.0158 30.7355 45.4932C31.371 44.5404 31.9346 43.7537 32.6324 42.8451L33.7752 41.341C33.1907 40.5639 32.5215 40.0313 31.63 39.6346C30.6681 39.2138 29.793 38.9932 28.7455 38.9072C27.5422 38.8085 26.5159 38.8306 25.3182 38.9801C24.5081 39.0792 23.7912 39.201 23.0469 39.3695C22.9864 41.5592 23.2864 43.7658 23.9595 45.8947C26.413 43.9653 28.0275 42.7004 28.0362 42.6939C28.3286 42.4515 28.6846 42.2834 29.0441 42.1781C29.5611 42.0269 30.0297 42.0269 30.1281 42.1546C30.2265 42.2824 30.1083 42.7353 29.8288 43.1937C29.6814 43.4354 29.4304 43.773 29.0837 44.0146C28.8863 44.1655 27.0961 45.4745 24.4931 47.3753C24.8996 48.3757 25.3926 49.3537 25.9735 50.2982C26.9588 49.5035 27.563 49.0192 27.5707 49.0133C27.9079 48.7309 28.3276 48.5459 28.7559 48.4392C29.372 48.2863 29.94 48.3191 30.0683 48.4855C30.1966 48.6519 30.0854 49.2094 29.7787 49.7628C29.6171 50.0548 29.3368 50.4587 28.9335 50.7363C28.7743 50.8578 28.1224 51.319 27.1458 52.0029C27.1709 52.0353 27.1959 52.0677 27.2209 52.0998C30.1601 55.8896 34.199 58.343 38.549 59.359Z" fill="#1C64F2"/>
<path fill-rule="evenodd" clip-rule="evenodd" d="M23.1696 37.6381C28.3668 34.0124 34.6144 31.8286 40.8589 31.0032C41.922 30.8602 42.8256 30.7853 43.8978 30.7508C46.7247 27.4979 49.392 24.9658 52.771 22.3315C45.9887 18.6822 37.393 19.0934 30.8871 24.0682C26.3942 27.5041 23.7662 32.4531 23.1696 37.6381Z" fill="#1C64F2"/>
</svg>
