<svg width="24" height="24" viewBox="0 0 24 24" fill="none" xmlns="http://www.w3.org/2000/svg">
<path d="M23.7609 6.88392C23.7609 6.88392 23.5266 5.11941 22.8047 4.34463C21.8906 3.32491 20.8688 3.31991 20.4 3.25993C17.0438 3 12.0047 3 12.0047 3H11.9953C11.9953 3 6.95625 3 3.6 3.25993C3.13125 3.31991 2.10938 3.32491 1.19531 4.34463C0.473438 5.11941 0.24375 6.88392 0.24375 6.88392C0.24375 6.88392 0 8.95834 0 11.0278V12.9672C0 15.0367 0.239062 17.1111 0.239062 17.1111C0.239062 17.1111 0.473437 18.8756 1.19062 19.6504C2.10469 20.6701 3.30469 20.6351 3.83906 20.7451C5.76094 20.94 12 21 12 21C12 21 17.0438 20.99 20.4 20.7351C20.8688 20.6751 21.8906 20.6701 22.8047 19.6504C23.5266 18.8756 23.7609 17.1111 23.7609 17.1111C23.7609 17.1111 24 15.0417 24 12.9672V11.0278C24 8.95834 23.7609 6.88392 23.7609 6.88392ZM9.52031 15.3216V8.12857L16.0031 11.7376L9.52031 15.3216Z" fill="#1C64F2"/>
</svg>
